<svg width="138" height="44" viewBox="0 0 138 44" fill="none" xmlns="http://www.w3.org/2000/svg">
<text x="48" y="28" font-family="Arial, sans-serif" font-size="18" font-weight="bold" fill="white" letter-spacing="-0.5">Globperty</text>
<rect width="44" height="44" rx="20" fill="#181A20"/>
<g clip-path="url(#clip0_1088_20919)">
<path d="M32.7715 22.1168L31.6482 21.1411V30.3498C31.6482 31.8994 30.3875 33.1599 28.8381 33.1599H25.4622C25.7456 32.8695 26.0459 32.5469 26.348 32.1981C26.6128 31.8925 26.8596 31.5885 27.0892 31.2866H28.8379C29.3544 31.2866 29.7747 30.8663 29.7747 30.3498V19.5142L22 12.7625L14.2252 19.5142V30.3498C14.2252 30.8663 14.6454 31.2866 15.1619 31.2866H16.9108C17.1402 31.5883 17.387 31.8925 17.652 32.1981C17.9541 32.5467 18.2544 32.8695 18.5377 33.1599H15.1619C13.6125 33.1599 12.3518 31.8994 12.3518 30.3498V21.1411L11.2283 22.1168L10 20.7023L22 10.2812L34 20.7023L32.7715 22.1168ZM22 24.2099C21.224 24.2099 20.5948 24.8389 20.5948 25.6149C20.5948 26.3909 21.224 27.02 22 27.02C22.776 27.02 23.4052 26.3909 23.4052 25.6149C23.4052 24.8389 22.776 24.2099 22 24.2099ZM27.3849 25.899C27.3849 27.3862 26.5597 29.0926 24.9321 30.9713C23.7798 32.3013 22.6392 33.2343 22.5912 33.2733L22 33.7546L21.4086 33.2733C21.3606 33.2343 20.22 32.3013 19.0677 30.9713C17.4401 29.0926 16.6149 27.3862 16.6149 25.899V25.6185C16.6149 22.6491 19.0306 20.2334 22 20.2334C24.9692 20.2334 27.3849 22.6491 27.3849 25.6185V25.899ZM25.5116 25.6185C25.5116 23.6822 23.9362 22.1068 22 22.1068C20.0637 22.1068 18.4884 23.6822 18.4884 25.6185V25.8992C18.4884 26.8937 19.197 28.2595 20.4837 29.7446C21.0416 30.3886 21.6006 30.9333 22.0026 31.3032C23.3434 30.0737 25.5114 27.7052 25.5114 25.8992V25.6185H25.5116Z" fill="white"/>
</g>
<defs>
<clipPath id="clip0_1088_20919">
<rect width="24" height="24" fill="white" transform="translate(10 10)"/>
</clipPath>
</defs>
</svg>
